<svg width="960" height="360" viewBox="0 0 960 360" fill="none" xmlns="http://www.w3.org/2000/svg" role="img" aria-labelledby="title desc">
  <title id="title">SPIDER logo</title>
  <desc id="desc">A premium SPIDER wordmark with a geometric signal mark.</desc>
  <defs>
    <linearGradient id="bg" x1="80" y1="40" x2="880" y2="320" gradientUnits="userSpaceOnUse">
      <stop offset="0" stop-color="#07111F"/>
      <stop offset="0.58" stop-color="#0B1420"/>
      <stop offset="1" stop-color="#151617"/>
    </linearGradient>
    <linearGradient id="gold" x1="154" y1="74" x2="282" y2="284" gradientUnits="userSpaceOnUse">
      <stop offset="0" stop-color="#F8E6A0"/>
      <stop offset="0.42" stop-color="#D6AA4B"/>
      <stop offset="1" stop-color="#8D682B"/>
    </linearGradient>
    <linearGradient id="text" x1="340" y1="120" x2="765" y2="220" gradientUnits="userSpaceOnUse">
      <stop offset="0" stop-color="#F5F7FA"/>
      <stop offset="1" stop-color="#BFC7D2"/>
    </linearGradient>
    <filter id="shadow" x="0" y="0" width="960" height="360" filterUnits="userSpaceOnUse" color-interpolation-filters="sRGB">
      <feDropShadow dx="0" dy="18" stdDeviation="22" flood-color="#000000" flood-opacity="0.28"/>
    </filter>
  </defs>
  <rect width="960" height="360" rx="28" fill="url(#bg)"/>
  <path d="M83 284H877" stroke="#263241" stroke-width="1"/>
  <path d="M83 76H877" stroke="#263241" stroke-width="1"/>
  <g filter="url(#shadow)">
    <path d="M220 58L319 116V244L220 302L121 244V116L220 58Z" fill="#0D1825" stroke="url(#gold)" stroke-width="4"/>
    <path d="M220 96L286 135V225L220 264L154 225V135L220 96Z" fill="#101D2B" stroke="#D6AA4B" stroke-width="3"/>
    <path d="M220 129L254 149V211L220 231L186 211V149L220 129Z" fill="url(#gold)"/>
    <path d="M220 85V58M220 302V275M144 103L121 89M296 103L319 89M144 257L121 271M296 257L319 271M121 180H93M347 180H319" stroke="#D6AA4B" stroke-width="4" stroke-linecap="round"/>
    <path d="M182 149L154 135M258 149L286 135M182 211L154 225M258 211L286 225" stroke="#D6AA4B" stroke-width="3" stroke-linecap="round"/>
  </g>
  <text x="370" y="168" fill="url(#text)" font-family="Inter, ui-sans-serif, system-ui, -apple-system, BlinkMacSystemFont, Segoe UI, sans-serif" font-size="72" font-weight="800" letter-spacing="6">SPIDER</text>
  <text x="374" y="215" fill="#D6AA4B" font-family="Inter, ui-sans-serif, system-ui, -apple-system, BlinkMacSystemFont, Segoe UI, sans-serif" font-size="20" font-weight="700" letter-spacing="4">DSPY-NATIVE SECURITY ORCHESTRATION</text>
  <text x="374" y="249" fill="#8F9BA8" font-family="Inter, ui-sans-serif, system-ui, -apple-system, BlinkMacSystemFont, Segoe UI, sans-serif" font-size="17" font-weight="500">Scoped automation. Human-approved exploitation. Auditable execution.</text>
</svg>
